<svg xmlns="http://www.w3.org/2000/svg" viewBox="0 0 240 140" fill="none" role="img" aria-label="Friends of Healing Springs Natural Area">
  <g transform="translate(88 6)">
    <circle cx="32" cy="32" r="30" stroke="#2F5D50" stroke-width="1.25" fill="#F7F6F2"/>
    <path d="M6 44C12 30 20 26 27 24" stroke="#4C6B3C" stroke-width="1.5" stroke-linecap="round" fill="none"/>
    <path d="M58 44C52 30 44 26 37 24" stroke="#4C6B3C" stroke-width="1.5" stroke-linecap="round" fill="none"/>
    <path d="M27 24H37" stroke="#8C8579" stroke-width="1" stroke-linecap="round"/>
    <circle cx="32" cy="13" r="2.5" fill="#1F6F8B"/>
    <path d="M32 15V22" stroke="#1F6F8B" stroke-width="1.75" stroke-linecap="round"/>
    <path d="M29 24V38" stroke="#1F6F8B" stroke-width="1.25" stroke-linecap="round" opacity="0.65"/>
    <path d="M32 24V40" stroke="#1F6F8B" stroke-width="2" stroke-linecap="round"/>
    <path d="M35 24V38" stroke="#1F6F8B" stroke-width="1.25" stroke-linecap="round" opacity="0.65"/>
    <path d="M26 39Q32 41 38 39" stroke="#2A9D8F" stroke-width="1" stroke-linecap="round" fill="none" opacity="0.55"/>
    <ellipse cx="32" cy="43" rx="9" ry="2.5" stroke="#1F6F8B" stroke-width="1.25" fill="none"/>
    <ellipse cx="32" cy="46" rx="15" ry="3.5" stroke="#2A9D8F" stroke-width="1.25" fill="none" opacity="0.6"/>
    <path d="M27 47C30 45.5 36 45.5 38 47C36 48.5 30 48.5 27 47Z" fill="#1F6F8B"/>
  </g>
  <text x="120" y="96" text-anchor="middle" font-family="'Source Serif 4', Georgia, serif" font-size="14" font-weight="600" fill="#2F5D50">Friends of Healing Springs</text>
  <line x1="68" y1="106" x2="98" y2="106" stroke="#8C8579" stroke-width="0.75"/>
  <text x="120" y="109" text-anchor="middle" font-family="Inter, 'Source Sans 3', system-ui, sans-serif" font-size="7.5" font-weight="600" letter-spacing="0.14em" fill="#8C8579">NATURAL AREA</text>
  <line x1="142" y1="106" x2="172" y2="106" stroke="#8C8579" stroke-width="0.75"/>
</svg>
