<svg xmlns="http://www.w3.org/2000/svg" viewBox="0 0 48 48" fill="none" aria-hidden="true">
  <title>Concept G - Watershed Stream</title>
  <!-- Open watershed contours (partial arcs, not closed circles) -->
  <path d="M6 20C10 14 16 12 22 14" stroke="currentColor" stroke-width="2" stroke-linecap="round" opacity="0.35"/>
  <path d="M8 26C12 20 18 18 24 20" stroke="currentColor" stroke-width="2" stroke-linecap="round" opacity="0.55"/>
  <path d="M10 32C14 26 20 24 26 26" stroke="currentColor" stroke-width="2" stroke-linecap="round" opacity="0.75"/>
  <!-- Spring and stream channel -->
  <circle cx="28" cy="10" r="2" fill="currentColor"/>
  <path
    d="M28 12C28 18 26 24 28 30C30 36 28 40 26 42"
    stroke="currentColor"
    stroke-width="2.5"
    stroke-linecap="round"
    fill="none"
  />
  <!-- Darter in stream -->
  <path
    d="M24 28C27 26 32 26 34 28C33 30 28 30 25 29C24 29 24 28 24 28"
    stroke="currentColor"
    stroke-width="2"
    stroke-linecap="round"
    stroke-linejoin="round"
    fill="none"
  />
  <path d="M24 28L20 26M24 28L20 30" stroke="currentColor" stroke-width="2" stroke-linecap="round"/>
  <path d="M28 27L29 25L30 27" stroke="currentColor" stroke-width="1.5" stroke-linecap="round" stroke-linejoin="round"/>
  <circle cx="32" cy="27.5" r="1" fill="currentColor"/>
</svg>
